<svg xmlns="http://www.w3.org/2000/svg" xmlns:xlink="http://www.w3.org/1999/xlink" xml:space="preserve" version="1.1" style="shape-rendering:geometricPrecision;text-rendering:geometricPrecision;image-rendering:optimizeQuality;" viewBox="0 0 362 452.5" x="0px" y="0px" fill-rule="evenodd" clip-rule="evenodd"><defs><style type="text/css">
   
    .fil1 {fill:black}
    .fil0 {fill:black;fill-rule:nonzero}
   
  </style></defs><g><path class="fil0" d="M181 0c100,0 181,81 181,181 0,31 -8,62 -23,90l6 85 -94 -7c-22,9 -46,13 -70,13 -100,0 -181,-81 -181,-181 0,-100 81,-181 181,-181zm0 24c-87,0 -157,70 -157,157 0,87 70,158 157,158 24,0 44,-5 66,-15l73 6 -5 -65c15,-26 24,-53 24,-84 0,-87 -71,-157 -158,-157z"/><path class="fil1" d="M114 158c13,0 24,10 24,23 0,13 -11,24 -24,24 -13,0 -23,-11 -23,-24 0,-13 10,-23 23,-23z"/><path class="fil1" d="M181 158c13,0 24,10 24,23 0,13 -11,24 -24,24 -13,0 -23,-11 -23,-24 0,-13 10,-23 23,-23z"/><path class="fil1" d="M248 158c13,0 24,10 24,23 0,13 -11,24 -24,24 -13,0 -23,-11 -23,-24 0,-13 10,-23 23,-23z"/></g><text x="0" y="377" fill="#000000" font-size="5px" font-weight="bold" font-family="'Helvetica Neue', Helvetica, Arial-Unicode, Arial, Sans-serif">Created by Wilshon Athena</text><text x="0" y="382" fill="#000000" font-size="5px" font-weight="bold" font-family="'Helvetica Neue', Helvetica, Arial-Unicode, Arial, Sans-serif">from the Noun Project</text></svg>