<svg xmlns="http://www.w3.org/2000/svg" xmlns:xlink="http://www.w3.org/1999/xlink" version="1.1" x="0px" y="0px" viewBox="0 0 512 640" style="enable-background:new 0 0 512 512;" xml:space="preserve"><g><path d="M396.7,149.2c-41.5-25.8-90.2-39.4-140.7-39.4s-99.2,13.6-140.7,39.4c-40.8,25.3-72.1,60.5-90.6,101.9   c-1.4,3.1-1.4,6.7,0,9.8c18.5,41.4,49.9,76.6,90.6,101.9c41.5,25.8,90.2,39.4,140.7,39.4s99.2-13.6,140.7-39.4   c40.8-25.3,72.1-60.5,90.6-101.9c1.4-3.1,1.4-6.7,0-9.8C468.8,209.7,437.5,174.5,396.7,149.2z M384.1,342.4   c-37.7,23.4-82,35.8-128.1,35.8s-90.3-12.4-128.1-35.8c-35-21.7-62.3-51.5-79.1-86.4c16.8-34.9,44.1-64.7,79.1-86.4   c37.7-23.4,82-35.8,128.1-35.8s90.3,12.4,128.1,35.8c35,21.7,62.3,51.5,79.1,86.4C446.4,290.9,419.1,320.7,384.1,342.4z"/><path d="M256,152.9c-56.8,0-103.1,46.2-103.1,103.1S199.2,359.1,256,359.1S359.1,312.8,359.1,256   S312.8,152.9,256,152.9z M256,335.1c-43.6,0-79.1-35.5-79.1-79.1s35.5-79.1,79.1-79.1s79.1,35.5,79.1,79.1S299.6,335.1,256,335.1z"/></g><text x="0" y="527" fill="#000000" font-size="5px" font-weight="bold" font-family="'Helvetica Neue', Helvetica, Arial-Unicode, Arial, Sans-serif">Created by Guru</text><text x="0" y="532" fill="#000000" font-size="5px" font-weight="bold" font-family="'Helvetica Neue', Helvetica, Arial-Unicode, Arial, Sans-serif">from the Noun Project</text></svg>